<svg xmlns="http://www.w3.org/2000/svg" xmlns:xlink="http://www.w3.org/1999/xlink" width="1000" height="1000" viewBox="0 0 1000 1000"><defs><linearGradient id="a" x1="-0.047" y1="0.5" x2="1.402" y2="0.909" gradientUnits="objectBoundingBox"><stop offset="0" stop-color="#379bf1"/><stop offset="1" stop-color="#0c1e91"/></linearGradient><radialGradient id="b" cx="0" cy="0" r="1.2" gradientTransform="matrix(0.714, 0.7, -0.783, 0.798, 0, 0)" gradientUnits="objectBoundingBox"><stop offset="0" stop-color="#edf500"/><stop offset="1" stop-color="#ff8221"/></radialGradient><filter id="c" x="-286" y="730" width="326" height="326" filterUnits="userSpaceOnUse"><feOffset dy="10" input="SourceAlpha"/><feGaussianBlur stdDeviation="5" result="d"/><feFlood flood-opacity="0.4"/><feComposite operator="in" in2="d"/><feComposite in="SourceGraphic"/></filter><filter id="f" x="621" y="-136" width="534" height="534" filterUnits="userSpaceOnUse"><feOffset dy="10" input="SourceAlpha"/><feGaussianBlur stdDeviation="5" result="g"/><feFlood flood-opacity="0.4"/><feComposite operator="in" in2="g"/><feComposite in="SourceGraphic"/></filter><filter id="h" x="416.524" y="153.266" width="52.701" height="18.82" filterUnits="userSpaceOnUse"><feOffset dy="3" input="SourceAlpha"/><feGaussianBlur stdDeviation="1.5" result="i"/><feFlood flood-opacity="0.302"/><feComposite operator="in" in2="i"/><feComposite in="SourceGraphic"/></filter><filter id="j" x="269.5" y="566.5" width="98" height="29" filterUnits="userSpaceOnUse"><feOffset dy="3" input="SourceAlpha"/><feGaussianBlur stdDeviation="1.5" result="k"/><feFlood flood-opacity="0.302"/><feComposite operator="in" in2="k"/><feComposite in="SourceGraphic"/></filter><filter id="l" x="521.099" y="114.5" width="52.701" height="18.82" filterUnits="userSpaceOnUse"><feOffset dy="3" input="SourceAlpha"/><feGaussianBlur stdDeviation="1.5" result="m"/><feFlood flood-opacity="0.302"/><feComposite operator="in" in2="m"/><feComposite in="SourceGraphic"/></filter><filter id="n" x="151.5" y="626.5" width="112" height="29" filterUnits="userSpaceOnUse"><feOffset dy="3" input="SourceAlpha"/><feGaussianBlur stdDeviation="1.5" result="o"/><feFlood flood-opacity="0.302"/><feComposite operator="in" in2="o"/><feComposite in="SourceGraphic"/></filter><filter id="p" x="433.5" y="117.5" width="22.749" height="18.82" filterUnits="userSpaceOnUse"><feOffset dy="3" input="SourceAlpha"/><feGaussianBlur stdDeviation="1.5" result="q"/><feFlood flood-opacity="0.302"/><feComposite operator="in" in2="q"/><feComposite in="SourceGraphic"/></filter><filter id="r" x="313.5" y="648.5" width="37" height="29" filterUnits="userSpaceOnUse"><feOffset dy="3" input="SourceAlpha"/><feGaussianBlur stdDeviation="1.5" result="s"/><feFlood flood-opacity="0.302"/><feComposite operator="in" in2="s"/><feComposite in="SourceGraphic"/></filter><filter id="t" x="443.722" y="139.338" width="131.755" height="18.82" filterUnits="userSpaceOnUse"><feOffset dy="3" input="SourceAlpha"/><feGaussianBlur stdDeviation="1.5" result="u"/><feFlood flood-opacity="0.302"/><feComposite operator="in" in2="u"/><feComposite in="SourceGraphic"/></filter><filter id="v" x="109.5" y="598.5" width="74" height="29" filterUnits="userSpaceOnUse"><feOffset dy="3" input="SourceAlpha"/><feGaussianBlur stdDeviation="1.5" result="w"/><feFlood flood-opacity="0.302"/><feComposite operator="in" in2="w"/><feComposite in="SourceGraphic"/></filter><filter id="x" x="637.045" y="673.435" width="112.132" height="40.733" filterUnits="userSpaceOnUse"><feOffset dy="3" input="SourceAlpha"/><feGaussianBlur stdDeviation="1.5" result="y"/><feFlood flood-opacity="0.302"/><feComposite operator="in" in2="y"/><feComposite in="SourceGraphic"/></filter><filter id="z" x="570.896" y="139.338" width="33.551" height="18.82" filterUnits="userSpaceOnUse"><feOffset dy="3" input="SourceAlpha"/><feGaussianBlur stdDeviation="1.5" result="aa"/><feFlood flood-opacity="0.302"/><feComposite operator="in" in2="aa"/><feComposite in="SourceGraphic"/></filter><filter id="ab" x="45.5" y="632.5" width="270" height="29" filterUnits="userSpaceOnUse"><feOffset dy="3" input="SourceAlpha"/><feGaussianBlur stdDeviation="1.5" result="ac"/><feFlood flood-opacity="0.302"/><feComposite operator="in" in2="ac"/><feComposite in="SourceGraphic"/></filter><filter id="ad" x="420.5" y="733.381" width="303.115" height="40.733" filterUnits="userSpaceOnUse"><feOffset dy="3" input="SourceAlpha"/><feGaussianBlur stdDeviation="1.5" result="ae"/><feFlood flood-opacity="0.302"/><feComposite operator="in" in2="ae"/><feComposite in="SourceGraphic"/></filter><filter id="af" x="322.5" y="632.5" width="115" height="29" filterUnits="userSpaceOnUse"><feOffset dy="3" input="SourceAlpha"/><feGaussianBlur stdDeviation="1.5" result="ag"/><feFlood flood-opacity="0.302"/><feComposite operator="in" in2="ag"/><feComposite in="SourceGraphic"/></filter><filter id="ah" x="740.001" y="733.381" width="177.185" height="40.733" filterUnits="userSpaceOnUse"><feOffset dy="3" input="SourceAlpha"/><feGaussianBlur stdDeviation="1.5" result="ai"/><feFlood flood-opacity="0.302"/><feComposite operator="in" in2="ai"/><feComposite in="SourceGraphic"/></filter><filter id="aj" x="446.5" y="632.5" width="31" height="29" filterUnits="userSpaceOnUse"><feOffset dy="3" input="SourceAlpha"/><feGaussianBlur stdDeviation="1.5" result="ak"/><feFlood flood-opacity="0.302"/><feComposite operator="in" in2="ak"/><feComposite in="SourceGraphic"/></filter><filter id="al" x="936.745" y="733.381" width="43.906" height="40.733" filterUnits="userSpaceOnUse"><feOffset dy="3" input="SourceAlpha"/><feGaussianBlur stdDeviation="1.5" result="am"/><feFlood flood-opacity="0.302"/><feComposite operator="in" in2="am"/><feComposite in="SourceGraphic"/></filter><clipPath id="ao"><rect width="1000" height="1000"/></clipPath></defs><g id="an" clip-path="url(#ao)"><rect width="1000" height="1000" fill="#fff"/><g fill="url(#a)"><path d="M 999.5 999.5 L 0.5 999.5 L 0.5 0.5 L 999.5 0.5 L 999.5 999.5 Z" stroke="none"/><path d="M 1 1 L 1 999 L 999 999 L 999 1 L 1 1 M 0 0 L 1000 0 L 1000 1000 L 0 1000 L 0 0 Z" stroke="none" fill="#707070"/></g><g transform="matrix(1, 0, 0, 1, 0, 0)" filter="url(#c)"><path d="M148,0A148,148,0,1,1,0,148,148,148,0,0,1,148,0Z" transform="translate(-271 735)" fill="url(#b)"/></g><g transform="matrix(1, 0, 0, 1, 0, 0)" filter="url(#f)"><path d="M252,0C391.176,0,504,112.824,504,252S391.176,504,252,504,0,391.176,0,252,112.824,0,252,0Z" transform="translate(636 -131)" fill="url(#b)"/></g><g transform="matrix(1, 0, 0, 1, 0, 0)" filter="url(#h)"><path d="M4.91,0H38.79a4.91,4.91,0,1,1,0,9.82H4.91A4.91,4.91,0,0,1,4.91,0Z" transform="translate(421.02 154.77)" fill="rgba(9,255,255,0.5)"/></g><g transform="matrix(1, 0, 0, 1, 0, 0)" filter="url(#j)"><path d="M10,0H79a10,10,0,0,1,0,20H10A10,10,0,0,1,10,0Z" transform="translate(363 588) rotate(180)" fill="rgba(9,255,255,0.5)"/></g><g transform="matrix(1, 0, 0, 1, 0, 0)" filter="url(#l)"><path d="M4.91,0H38.79a4.91,4.91,0,1,1,0,9.82H4.91A4.91,4.91,0,0,1,4.91,0Z" transform="translate(525.6 116)" fill="rgba(9,255,255,0.5)"/></g><g transform="matrix(1, 0, 0, 1, 0, 0)" filter="url(#n)"><path d="M10,0H93a10,10,0,0,1,0,20H10A10,10,0,0,1,10,0Z" transform="translate(259 648) rotate(180)" fill="rgba(9,255,255,0.5)"/></g><g transform="matrix(1, 0, 0, 1, 0, 0)" filter="url(#p)"><path d="M4.91,0H8.838a4.91,4.91,0,0,1,0,9.82H4.91A4.91,4.91,0,0,1,4.91,0Z" transform="translate(438 119)" fill="rgba(9,255,255,0.5)"/></g><g transform="matrix(1, 0, 0, 1, 0, 0)" filter="url(#r)"><path d="M10,0h8a10,10,0,0,1,0,20H10A10,10,0,0,1,10,0Z" transform="translate(346 670) rotate(180)" fill="rgba(9,255,255,0.5)"/></g><g transform="matrix(1, 0, 0, 1, 0, 0)" filter="url(#t)"><path d="M4.91,0H117.844a4.91,4.91,0,1,1,0,9.82H4.91A4.91,4.91,0,0,1,4.91,0Z" transform="translate(448.22 140.84)" fill="#fff"/></g><g transform="matrix(1, 0, 0, 1, 0, 0)" filter="url(#v)"><path d="M10,0H55a10,10,0,0,1,0,20H10A10,10,0,0,1,10,0Z" transform="translate(179 620) rotate(180)" fill="#fff"/></g><g transform="matrix(1, 0, 0, 1, 0, 0)" filter="url(#x)"><path d="M15.866,0h71.4a15.866,15.866,0,1,1,0,31.733h-71.4A15.866,15.866,0,0,1,15.866,0Z" transform="translate(744.68 706.67) rotate(180)" fill="#fff" opacity="0.1"/></g><g transform="matrix(1, 0, 0, 1, 0, 0)" filter="url(#z)"><path d="M4.91,0H19.641a4.91,4.91,0,0,1,0,9.82H4.91A4.91,4.91,0,0,1,4.91,0Z" transform="translate(575.4 140.84)" fill="#fff"/></g><g transform="matrix(1, 0, 0, 1, 0, 0)" filter="url(#ab)"><path d="M10,0H251a10,10,0,0,1,0,20H10A10,10,0,0,1,10,0Z" transform="translate(311 654) rotate(180)" fill="#fff"/></g><g transform="matrix(1, 0, 0, 1, 0, 0)" filter="url(#ad)"><path d="M15.866,0H278.248a15.866,15.866,0,0,1,0,31.733H15.866A15.866,15.866,0,0,1,15.866,0Z" transform="translate(719.11 766.61) rotate(180)" fill="#fff" opacity="0.1"/></g><g transform="matrix(1, 0, 0, 1, 0, 0)" filter="url(#af)"><path d="M10,0H96a10,10,0,0,1,0,20H10A10,10,0,0,1,10,0Z" transform="translate(433 654) rotate(180)" fill="#fff"/></g><g transform="matrix(1, 0, 0, 1, 0, 0)" filter="url(#ah)"><path d="M15.866,0H152.318a15.866,15.866,0,1,1,0,31.733H15.866A15.866,15.866,0,0,1,15.866,0Z" transform="translate(912.69 766.61) rotate(180)" fill="#fff" opacity="0.1"/></g><g transform="matrix(1, 0, 0, 1, 0, 0)" filter="url(#aj)"><path d="M10,0h2a10,10,0,0,1,0,20H10A10,10,0,0,1,10,0Z" transform="translate(473 654) rotate(180)" fill="#fff"/></g><g transform="matrix(1, 0, 0, 1, 0, 0)" filter="url(#al)"><path d="M15.866,0H19.04a15.866,15.866,0,1,1,0,31.733H15.866A15.866,15.866,0,0,1,15.866,0Z" transform="translate(976.15 766.61) rotate(180)" fill="#fff" opacity="0.1"/></g></g></svg>