<svg xmlns="http://www.w3.org/2000/svg" xmlns:xlink="http://www.w3.org/1999/xlink" width="1055.294" height="300" viewBox="0 0 1055.294 300"><defs><filter id="a" x="527.06" y="0" width="269.412" height="107.059" filterUnits="userSpaceOnUse"><feOffset dy="20" input="SourceAlpha"/><feGaussianBlur stdDeviation="10" result="b"/><feFlood flood-opacity="0.302"/><feComposite operator="in" in2="b"/><feComposite in="SourceGraphic"/></filter><filter id="c" x="249.411" y="141.177" width="302.353" height="107.059" filterUnits="userSpaceOnUse"><feOffset dy="20" input="SourceAlpha"/><feGaussianBlur stdDeviation="10" result="d"/><feFlood flood-opacity="0.302"/><feComposite operator="in" in2="d"/><feComposite in="SourceGraphic"/></filter><filter id="e" x="630.589" y="192.941" width="125.882" height="107.059" filterUnits="userSpaceOnUse"><feOffset dy="20" input="SourceAlpha"/><feGaussianBlur stdDeviation="10" result="f"/><feFlood flood-opacity="0.302"/><feComposite operator="in" in2="f"/><feComposite in="SourceGraphic"/></filter><filter id="g" x="150.588" y="75.294" width="212.941" height="107.059" filterUnits="userSpaceOnUse"><feOffset dy="20" input="SourceAlpha"/><feGaussianBlur stdDeviation="10" result="h"/><feFlood flood-opacity="0.302"/><feComposite operator="in" in2="h"/><feComposite in="SourceGraphic"/></filter><filter id="i" x="0" y="155.294" width="674.118" height="107.059" filterUnits="userSpaceOnUse"><feOffset dy="20" input="SourceAlpha"/><feGaussianBlur stdDeviation="10" result="j"/><feFlood flood-opacity="0.302"/><feComposite operator="in" in2="j"/><feComposite in="SourceGraphic"/></filter><filter id="k" x="651.765" y="155.294" width="309.412" height="107.059" filterUnits="userSpaceOnUse"><feOffset dy="20" input="SourceAlpha"/><feGaussianBlur stdDeviation="10" result="l"/><feFlood flood-opacity="0.302"/><feComposite operator="in" in2="l"/><feComposite in="SourceGraphic"/></filter><filter id="m" x="943.53" y="155.294" width="111.765" height="107.059" filterUnits="userSpaceOnUse"><feOffset dy="20" input="SourceAlpha"/><feGaussianBlur stdDeviation="10" result="n"/><feFlood flood-opacity="0.302"/><feComposite operator="in" in2="n"/><feComposite in="SourceGraphic"/></filter></defs><g transform="translate(-7193.853 -3267)"><g transform="matrix(1, 0, 0, 1, 7193.85, 3267)" filter="url(#a)"><path d="M23.529,0H185.882a23.529,23.529,0,1,1,0,47.059H23.529A23.529,23.529,0,0,1,23.529,0Z" transform="translate(766.47 57.06) rotate(180)" fill="rgba(9,255,255,0.5)"/></g><g transform="matrix(1, 0, 0, 1, 7193.85, 3267)" filter="url(#c)"><path d="M23.529,0H218.824a23.529,23.529,0,1,1,0,47.059H23.529A23.529,23.529,0,0,1,23.529,0Z" transform="translate(521.76 198.24) rotate(180)" fill="rgba(9,255,255,0.5)"/></g><g transform="matrix(1, 0, 0, 1, 7193.85, 3267)" filter="url(#e)"><path d="M23.529,0H42.353a23.529,23.529,0,0,1,0,47.059H23.529A23.529,23.529,0,0,1,23.529,0Z" transform="translate(726.47 250) rotate(180)" fill="rgba(9,255,255,0.5)"/></g><g transform="matrix(1, 0, 0, 1, 7193.85, 3267)" filter="url(#g)"><path d="M23.529,0H129.412a23.529,23.529,0,0,1,0,47.059H23.529A23.529,23.529,0,0,1,23.529,0Z" transform="translate(333.53 132.35) rotate(180)" fill="#fff"/></g><g transform="matrix(1, 0, 0, 1, 7193.85, 3267)" filter="url(#i)"><path d="M23.529,0H590.588a23.529,23.529,0,1,1,0,47.059H23.529A23.529,23.529,0,0,1,23.529,0Z" transform="translate(644.12 212.35) rotate(180)" fill="#fff"/></g><g transform="matrix(1, 0, 0, 1, 7193.85, 3267)" filter="url(#k)"><path d="M23.529,0H225.882a23.529,23.529,0,1,1,0,47.059H23.529A23.529,23.529,0,0,1,23.529,0Z" transform="translate(931.18 212.35) rotate(180)" fill="#fff"/></g><g transform="matrix(1, 0, 0, 1, 7193.85, 3267)" filter="url(#m)"><path d="M23.529,0h4.706a23.529,23.529,0,1,1,0,47.059H23.529A23.529,23.529,0,0,1,23.529,0Z" transform="translate(1025.29 212.35) rotate(180)" fill="#fff"/></g></g></svg>