<svg xmlns="http://www.w3.org/2000/svg" xmlns:xlink="http://www.w3.org/1999/xlink" width="1316.947" height="401.327" viewBox="0 0 1316.947 401.327"><defs><filter id="a" x="949.946" y="272.338" width="367.001" height="128.989" filterUnits="userSpaceOnUse"><feOffset dy="20" input="SourceAlpha"/><feGaussianBlur stdDeviation="10" result="b"/><feFlood flood-opacity="0.302"/><feComposite operator="in" in2="b"/><feComposite in="SourceGraphic"/></filter><filter id="c" x="215.299" y="0" width="367.001" height="128.989" filterUnits="userSpaceOnUse"><feOffset dy="20" input="SourceAlpha"/><feGaussianBlur stdDeviation="10" result="d"/><feFlood flood-opacity="0.302"/><feComposite operator="in" in2="d"/><feComposite in="SourceGraphic"/></filter><filter id="e" x="1041.104" y="21.075" width="156.584" height="128.989" filterUnits="userSpaceOnUse"><feOffset dy="20" input="SourceAlpha"/><feGaussianBlur stdDeviation="10" result="f"/><feFlood flood-opacity="0.302"/><feComposite operator="in" in2="f"/><feComposite in="SourceGraphic"/></filter><filter id="g" x="203.518" y="174.492" width="922.362" height="128.989" filterUnits="userSpaceOnUse"><feOffset dy="20" input="SourceAlpha"/><feGaussianBlur stdDeviation="10" result="h"/><feFlood flood-opacity="0.302"/><feComposite operator="in" in2="h"/><feComposite in="SourceGraphic"/></filter><filter id="i" x="0" y="174.492" width="232.473" height="128.989" filterUnits="userSpaceOnUse"><feOffset dy="20" input="SourceAlpha"/><feGaussianBlur stdDeviation="10" result="j"/><feFlood flood-opacity="0.302"/><feComposite operator="in" in2="j"/><feComposite in="SourceGraphic"/></filter></defs><g transform="translate(-5912 -2758)"><g transform="matrix(1, 0, 0, 1, 5912, 2758)" filter="url(#a)"><path d="M272.506,0H34.495a34.495,34.495,0,0,0,0,68.989H272.506a34.495,34.495,0,0,0,0-68.989Z" transform="translate(979.95 282.34)" fill="rgba(9,255,255,0.5)"/></g><g transform="matrix(1, 0, 0, 1, 5912, 2758)" filter="url(#c)"><path d="M272.506,0H34.495a34.495,34.495,0,0,0,0,68.989H272.506a34.495,34.495,0,0,0,0-68.989Z" transform="translate(245.3 10)" fill="rgba(9,255,255,0.5)"/></g><g transform="matrix(1, 0, 0, 1, 5912, 2758)" filter="url(#e)"><path d="M62.09,0h-27.6a34.495,34.495,0,0,0,0,68.989h27.6A34.495,34.495,0,0,0,62.09,0Z" transform="translate(1071.1 31.08)" fill="rgba(9,255,255,0.5)"/></g><g transform="matrix(1, 0, 0, 1, 5912, 2758)" filter="url(#g)"><path d="M827.868,0H34.495a34.495,34.495,0,1,0,0,68.989H827.868a34.495,34.495,0,0,0,0-68.989Z" transform="translate(233.52 184.49)" fill="#fff"/></g><g transform="matrix(1, 0, 0, 1, 5912, 2758)" filter="url(#i)"><path d="M137.978,0H34.494a34.495,34.495,0,0,0,0,68.989H137.978a34.495,34.495,0,0,0,0-68.989Z" transform="translate(30 184.49)" fill="#fff"/></g></g></svg>