<svg xmlns="http://www.w3.org/2000/svg" xmlns:xlink="http://www.w3.org/1999/xlink" width="1422.54" height="327.746" viewBox="0 0 1422.54 327.746"><defs><filter id="a" x="0" y="134" width="835.544" height="153.676" filterUnits="userSpaceOnUse"><feOffset dy="40" input="SourceAlpha"/><feGaussianBlur stdDeviation="10" result="b"/><feFlood flood-opacity="0.4"/><feComposite operator="in" in2="b"/><feComposite in="SourceGraphic"/></filter><filter id="c" x="815.594" y="174.07" width="331.946" height="153.676" filterUnits="userSpaceOnUse"><feOffset dy="40" input="SourceAlpha"/><feGaussianBlur stdDeviation="10" result="d"/><feFlood flood-opacity="0.4"/><feComposite operator="in" in2="d"/><feComposite in="SourceGraphic"/></filter><filter id="e" x="1090.594" y="10.07" width="331.946" height="153.676" filterUnits="userSpaceOnUse"><feOffset dy="40" input="SourceAlpha"/><feGaussianBlur stdDeviation="10" result="f"/><feFlood flood-opacity="0.4"/><feComposite operator="in" in2="f"/><feComposite in="SourceGraphic"/></filter><filter id="g" x="604.578" y="10" width="503.482" height="153.676" filterUnits="userSpaceOnUse"><feOffset dy="40" input="SourceAlpha"/><feGaussianBlur stdDeviation="10" result="h"/><feFlood flood-opacity="0.4"/><feComposite operator="in" in2="h"/><feComposite in="SourceGraphic"/></filter><filter id="i" x="470.227" y="0" width="152.043" height="143.676" filterUnits="userSpaceOnUse"><feOffset dy="20" input="SourceAlpha"/><feGaussianBlur stdDeviation="10" result="j"/><feFlood flood-opacity="0.4"/><feComposite operator="in" in2="j"/><feComposite in="SourceGraphic"/></filter></defs><g transform="translate(-5101.773 -3343.868)"><g transform="matrix(1, 0, 0, 1, 5101.77, 3343.87)" filter="url(#a)"><path d="M41.838,0H733.707a41.838,41.838,0,0,1,0,83.676H41.838A41.838,41.838,0,1,1,41.838,0Z" transform="translate(30 134)" fill="#fff" opacity="0.1"/></g><g transform="matrix(1, 0, 0, 1, 5101.77, 3343.87)" filter="url(#c)"><path d="M41.838,0H230.109a41.838,41.838,0,1,1,0,83.676H41.838A41.838,41.838,0,1,1,41.838,0Z" transform="translate(845.59 174.07)" fill="#fff" opacity="0.1"/></g><g transform="matrix(1, 0, 0, 1, 5101.77, 3343.87)" filter="url(#e)"><path d="M41.838,0H230.109a41.838,41.838,0,1,1,0,83.676H41.838A41.838,41.838,0,1,1,41.838,0Z" transform="translate(1120.59 10.07)" fill="#fff" opacity="0.1"/></g><g transform="matrix(1, 0, 0, 1, 5101.77, 3343.87)" filter="url(#g)"><path d="M41.838,0H401.644a41.838,41.838,0,1,1,0,83.676H41.838A41.838,41.838,0,1,1,41.838,0Z" transform="translate(634.58 10)" fill="#fff" opacity="0.1"/></g><g transform="matrix(1, 0, 0, 1, 5101.77, 3343.87)" filter="url(#i)"><path d="M41.838,0h8.368a41.838,41.838,0,1,1,0,83.676H41.838A41.838,41.838,0,1,1,41.838,0Z" transform="translate(500.23 10)" fill="#fff" opacity="0.1"/></g></g></svg>