<svg xmlns="http://www.w3.org/2000/svg" xmlns:xlink="http://www.w3.org/1999/xlink" width="402.259" height="147.217" viewBox="0 0 402.259 147.217"><defs><filter id="a" x="0" y="29.807" width="402.259" height="117.41" filterUnits="userSpaceOnUse"><feOffset dy="5" input="SourceAlpha"/><feGaussianBlur stdDeviation="1" result="b"/><feFlood flood-opacity="0.302"/><feComposite operator="in" in2="b"/><feComposite in="SourceGraphic"/></filter><filter id="c" x="207.512" y="17.244" width="134.188" height="59.495" filterUnits="userSpaceOnUse"><feOffset dy="5" input="SourceAlpha"/><feGaussianBlur stdDeviation="1" result="d"/><feFlood flood-opacity="0.302"/><feComposite operator="in" in2="d"/><feComposite in="SourceGraphic"/></filter><filter id="e" x="172.385" y="0" width="130.234" height="63.328" filterUnits="userSpaceOnUse"><feOffset dy="5" input="SourceAlpha"/><feGaussianBlur stdDeviation="1" result="f"/><feFlood flood-opacity="0.302"/><feComposite operator="in" in2="f"/><feComposite in="SourceGraphic"/></filter></defs><g transform="translate(-2436 -100)"><g transform="matrix(1, 0, 0, 1, 2436, 100)" filter="url(#a)"><path d="M121.83-5.052a26.488,26.488,0,0,1-9.648,2.279q-4.026,0-4.026-1.671,0-1.064,4.482-1.215A18.064,18.064,0,0,0,119.1-6.723a9.653,9.653,0,0,0,5.774-8.953,14.282,14.282,0,0,0-1.682-6.392q-4.862-8.66-23.55-8.66a74.107,74.107,0,0,0-21.575,3.256,45.535,45.535,0,0,0-18.08,10.039Q52.688-10.673,52.688-4.9q0,8.812,17.473,12.915l17.928,3.343a44.791,44.791,0,0,1,16.105,5.481,13.463,13.463,0,0,1,6.989,12.155,24.48,24.48,0,0,1-1.064,6.837Q105.258,52.239,85.051,60.9a97.96,97.96,0,0,1-39.807,7.434,93.169,93.169,0,0,1-11.4-.608A52.185,52.185,0,0,0,46.6,72.435q.608.152.608.608,0,1.357-3.191,1.357-6.24,0-15.5-7.445A39.883,39.883,0,0,1,9.69,59.977,30.387,30.387,0,0,1,2.4,50.557,24.239,24.239,0,0,1-.945,39.313,16.2,16.2,0,0,1,1.03,30.946q4.558-8.053,11.547-8.053,5.318,0,6.24,8.953Q20.945,49.168,21.7,51.6a28.488,28.488,0,0,0,7.749,12.611A65.972,65.972,0,0,0,43.29,65.566a83.6,83.6,0,0,0,32.189-6.5,45.1,45.1,0,0,0,22.79-18.536,16.518,16.518,0,0,0,2.887-8.356q0-7.141-12.611-11.091L61.8,15A28.96,28.96,0,0,1,48.662,8.471,13.91,13.91,0,0,1,43.724-2.013q0-9.116,11.4-18.232A62.945,62.945,0,0,1,76.314-31.1a83.072,83.072,0,0,1,24.624-3.885,49.577,49.577,0,0,1,19.98,3.495q10.18,4.71,10.18,13.75A12.893,12.893,0,0,1,121.83-5.052ZM23.972,62.712A48.975,48.975,0,0,1,12.729,36.123q-1.357-9.572-2.583-9.572a4.14,4.14,0,0,0-2.279.684A7.054,7.054,0,0,0,5.74,30.2a14.108,14.108,0,0,0-1.064,5.926,27.606,27.606,0,0,0,8.2,20.056,26.472,26.472,0,0,0,11.091,6.533ZM176.364,12.269a.814.814,0,0,1,.912-.912,4.715,4.715,0,0,1,4.243,3.343,19.944,19.944,0,0,1,1.823,10.039q0,10.939-9.572,22.411T153.118,58.62a9.822,9.822,0,0,1-8.584-5.155,19.654,19.654,0,0,1-3.256-10.636,46.938,46.938,0,0,1,2.442-13.37,195.445,195.445,0,0,0-12.936,15.1,176.356,176.356,0,0,0-11.547,15.736,8.812,8.812,0,0,1-4.189-1.671q-2.659-1.671-2.659-3.191,0-3.646,9.268-24.082t13.837-20.435a3.969,3.969,0,0,1,3.039,1.6,4.591,4.591,0,0,1,1.357,2.442A158.557,158.557,0,0,1,131.608,30.6q-8.28,14.814-8.139,17.852Q137.9,30.979,138.814,29.915q14.759-17.039,19.318-17.039a4.867,4.867,0,0,1,3.256,1.443,3.882,3.882,0,0,1,1.6,2.583,22.709,22.709,0,0,1-4.254,6.761,90.779,90.779,0,0,0-7.217,11.015,22.364,22.364,0,0,0-2.963,10.853q0,9.572,6.381,9.572h1.975q8.2,0,14.966-12.535t6.761-20.131a18.631,18.631,0,0,0-1.975-9.42,1.031,1.031,0,0,1-.293-.749Zm14.89,49.683a9.569,9.569,0,0,1-3.039-.456q-9.724-2.735-9.724-10.939,0-10.636,13.37-24.614t24.006-13.989a8.411,8.411,0,0,1,5.7,1.9,5.9,5.9,0,0,1,2.2,4.634q0,8.508-12.839,16.257T190.038,42.5a6.734,6.734,0,0,1-2.127-.3,17.573,17.573,0,0,0-2.279,8.66q0,7.9,7.521,7.9t19.535-10.18a97.076,97.076,0,0,0,15.8-15.8q1.357-1.823,2.355-1.823t.988.912a5.119,5.119,0,0,1-1.215,2.583A93.4,93.4,0,0,1,210.864,53.6Q199.306,61.952,191.254,61.952ZM219.97,18.194q0-1.823-3.874-1.823T205.08,22.3a67.828,67.828,0,0,0-14.89,16.55,6.21,6.21,0,0,0,1.975.3q5.774,0,15.421-6.153t12.079-13.446a3.733,3.733,0,0,0,.3-1.357ZM234.1,61.952a9.569,9.569,0,0,1-3.039-.456q-9.724-2.735-9.724-10.939,0-10.636,13.37-24.614t24.006-13.989a8.411,8.411,0,0,1,5.7,1.9,6.465,6.465,0,0,1,2.2,5.155,14.146,14.146,0,0,1-1.975,6.837,6.379,6.379,0,0,1-5.926,3.57q-3.95,0-3.95-2.442a11.666,11.666,0,0,1,2.051-5.09,31.192,31.192,0,0,0,2.051-3.646q0-.228-.456-.228a26.806,26.806,0,0,0-11.623,6.077,51.007,51.007,0,0,0-10.1,9.42L230.757,42.2a17.364,17.364,0,0,0-2.2,5.774,27.559,27.559,0,0,0-.684,5.014,6.1,6.1,0,0,0,1.9,3.8,6.853,6.853,0,0,0,5.394,2.127q7.6,0,18.84-8.888a96.983,96.983,0,0,0,17.321-16.941,2.3,2.3,0,0,1,1.823-.912q1.064,0,1.064.608a2.64,2.64,0,0,1-.76,1.519,90.755,90.755,0,0,1-19.98,19.372Q241.848,61.952,234.1,61.952Zm67.459-2.583q-8.953,0-8.953-10.484a26.721,26.721,0,0,1,4.178-13.142q4.178-7.217,10.256-16.941a109.993,109.993,0,0,0-35.26,28.716q-8.812,13.218-10.332,13.218-4.406,0-4.406-2.583a13.272,13.272,0,0,1,1.823-4.862Q273.6,27.007,281.2,14.852,299.28-14.179,306.725-16.6a1.357,1.357,0,0,1,.608-.152q1.975,0,2.735,3.191-.456,3.191-15.8,23.094-15.953,20.207-18.08,26.437,5.622-4.1,19.6-13.837,15.042-10.484,19.9-10.484t4.862,3.8a3.059,3.059,0,0,1-.076.836q-.076.228-10.56,14.358T299.432,51.468q0,3.495,2.583,3.495,8.2-.3,24.614-19.752,1.357-1.357,2.051-1.357t.684.912q0,3.039-15.042,16.409Q304.9,59.369,301.559,59.369Zm71.714-44.821,2.127-.456a4.726,4.726,0,0,1,3.191,1.357q1.519,1.357,1.519,2.127a145.367,145.367,0,0,1-9.42,14.651q-9.42,13.9-9.42,19.372a2.868,2.868,0,0,0,.152.912Q362.181,56,364.764,56q7.9,0,28.868-26.133a1.313,1.313,0,0,1,1.064-.608q.608,0,.608,1.14a5.516,5.516,0,0,1-1.357,2.963Q374.5,59.347,364.319,59.347a7.3,7.3,0,0,1-2.583-.456,9.824,9.824,0,0,1-6.685-10.039,22.49,22.49,0,0,1,.608-5.155l-9.42,9.116q-8.986,7.922-13,7.922a13.067,13.067,0,0,1-7.673-2.583,9.539,9.539,0,0,1-4.1-8.053q0-11.091,15.5-26.513T365.372,8.156a6.666,6.666,0,0,1,6.685,3.495q.456,1.215.76,2.051t.456.847ZM327.844,51.924q0,5.47,3.8,5.47,8.812,0,24.006-19.3l16.105-22.183a4.2,4.2,0,0,0-3.95-2.127q-9.268,0-24.614,14.358T327.844,51.924Z" transform="translate(3.96 64.82)" fill="#fff"/></g><g transform="matrix(1, 0, 0, 1, 2436, 100)" filter="url(#c)"><path d="M372.338,892.042c4.094-10.711,28.344-28.271,38.443-36.212a7.418,7.418,0,0,1,8.272-.44c6.069,5.139,8.24,6.368,12.41,4.83,4.431-1.628,4.515-5.079,19.464-16.68,4.306-3.34,8.506-3.527,14.005-2.247,4.11.955,8.324,6.126,33.914,4.441,7.779-.513-13.148,7.388-28.217,7.022s-15.21-4.121-22.142-.439-3.92,14.57-12.166,20.85-18.4-7-23.357-7.021C402.956,866.094,376.693,892.7,372.338,892.042Z" transform="translate(-161.83 -823.32)" fill="#fff"/></g><g transform="matrix(1, 0, 0, 1, 2436, 100)" filter="url(#e)"><path d="M313.986,867.2c3.967-11.509,27.468-30.371,37.254-38.9a6.617,6.617,0,0,1,8.017-.472c5.882,5.521,7.985,6.84,12.025,5.188,4.295-1.755,4.374-5.456,18.862-17.907,4.173-3.59,8.242-3.8,13.566-2.415,3.983,1.028,8.066,6.582,32.878,4.772,7.54-.543-12.752,7.936-27.351,7.545s-14.738-4.428-21.456-.472-3.8,15.652-11.789,22.4-17.833-7.518-22.636-7.545c-9.7-.054-35.157,28.531-39.376,27.823Z" transform="translate(-138.6 -811.89)" fill="#fff"/></g></g></svg>